<svg xmlns="http://www.w3.org/2000/svg" xmlns:xlink="http://www.w3.org/1999/xlink" width="50" zoomAndPan="magnify" viewBox="0 0 37.5 37.499999" height="50" preserveAspectRatio="xMidYMid meet" version="1.0"><defs><clipPath id="6359bcb4a4"><path d="M 1.332031 3.699219 L 33.15625 3.699219 L 33.15625 35.527344 L 1.332031 35.527344 Z M 1.332031 3.699219 " clip-rule="nonzero"/></clipPath></defs><g clip-path="url(#6359bcb4a4)"><path fill="#46cc6b" d="M 33.15625 19.617188 C 33.15625 28.402344 26.039062 35.519531 17.253906 35.519531 C 14.90625 35.523438 12.667969 35.03125 10.539062 34.039062 C 9.234375 33.429688 7.878906 33.261719 6.46875 33.539062 L 3.984375 34.027344 C 2.933594 34.234375 2.113281 33.125 2.621094 32.183594 C 3.601562 30.351562 3.679688 28.164062 2.808594 26.28125 C 1.839844 24.179688 1.355469 21.972656 1.351562 19.65625 C 1.332031 10.867188 8.441406 3.730469 17.230469 3.714844 C 26.023438 3.703125 33.15625 10.828125 33.15625 19.617188 Z M 33.15625 19.617188 " fill-opacity="1" fill-rule="nonzero"/></g><path fill="#ffffff" d="M 30.867188 19.617188 C 30.867188 20.511719 30.78125 21.398438 30.605469 22.273438 C 30.429688 23.152344 30.171875 24.003906 29.832031 24.828125 C 29.488281 25.652344 29.070312 26.4375 28.574219 27.179688 C 28.078125 27.925781 27.511719 28.613281 26.878906 29.246094 C 26.25 29.875 25.5625 30.441406 24.816406 30.9375 C 24.074219 31.433594 23.289062 31.851562 22.464844 32.195312 C 21.636719 32.539062 20.785156 32.796875 19.910156 32.96875 C 19.035156 33.144531 18.148438 33.230469 17.253906 33.230469 C 16.359375 33.230469 15.476562 33.144531 14.597656 32.96875 C 13.722656 32.796875 12.871094 32.539062 12.046875 32.195312 C 11.21875 31.851562 10.433594 31.433594 9.691406 30.9375 C 8.949219 30.441406 8.261719 29.875 7.628906 29.246094 C 6.996094 28.613281 6.433594 27.925781 5.9375 27.179688 C 5.441406 26.4375 5.019531 25.652344 4.679688 24.828125 C 4.335938 24.003906 4.078125 23.152344 3.902344 22.273438 C 3.730469 21.398438 3.640625 20.511719 3.640625 19.617188 C 3.640625 18.726562 3.730469 17.839844 3.902344 16.964844 C 4.078125 16.085938 4.335938 15.234375 4.679688 14.410156 C 5.019531 13.582031 5.441406 12.800781 5.9375 12.054688 C 6.433594 11.3125 6.996094 10.625 7.628906 9.992188 C 8.261719 9.359375 8.949219 8.796875 9.691406 8.300781 C 10.433594 7.804688 11.21875 7.382812 12.046875 7.042969 C 12.871094 6.699219 13.722656 6.441406 14.597656 6.269531 C 15.476562 6.09375 16.359375 6.007812 17.253906 6.007812 C 18.148438 6.007812 19.035156 6.09375 19.910156 6.269531 C 20.785156 6.441406 21.636719 6.699219 22.464844 7.042969 C 23.289062 7.382812 24.074219 7.804688 24.816406 8.300781 C 25.5625 8.796875 26.25 9.359375 26.878906 9.992188 C 27.511719 10.625 28.078125 11.3125 28.574219 12.054688 C 29.070312 12.800781 29.488281 13.582031 29.832031 14.410156 C 30.171875 15.234375 30.429688 16.085938 30.605469 16.964844 C 30.78125 17.839844 30.867188 18.726562 30.867188 19.617188 Z M 30.867188 19.617188 " fill-opacity="1" fill-rule="nonzero"/><path fill="#46cc6b" d="M 28.4375 19.617188 C 28.4375 20.351562 28.363281 21.082031 28.222656 21.800781 C 28.078125 22.519531 27.867188 23.21875 27.585938 23.898438 C 27.304688 24.574219 26.960938 25.21875 26.550781 25.832031 C 26.144531 26.441406 25.679688 27.007812 25.160156 27.527344 C 24.640625 28.042969 24.078125 28.507812 23.46875 28.917969 C 22.855469 29.324219 22.210938 29.667969 21.535156 29.949219 C 20.855469 30.230469 20.15625 30.441406 19.4375 30.585938 C 18.714844 30.730469 17.988281 30.800781 17.253906 30.800781 C 16.519531 30.800781 15.792969 30.730469 15.074219 30.585938 C 14.351562 30.441406 13.652344 30.230469 12.976562 29.949219 C 12.296875 29.667969 11.652344 29.324219 11.042969 28.917969 C 10.433594 28.507812 9.867188 28.042969 9.347656 27.527344 C 8.828125 27.007812 8.363281 26.441406 7.957031 25.832031 C 7.550781 25.21875 7.203125 24.574219 6.925781 23.898438 C 6.644531 23.21875 6.429688 22.519531 6.289062 21.800781 C 6.144531 21.082031 6.074219 20.351562 6.074219 19.617188 C 6.074219 18.882812 6.144531 18.15625 6.289062 17.4375 C 6.429688 16.71875 6.644531 16.019531 6.925781 15.339844 C 7.203125 14.660156 7.550781 14.015625 7.957031 13.40625 C 8.363281 12.796875 8.828125 12.230469 9.347656 11.710938 C 9.867188 11.191406 10.433594 10.730469 11.042969 10.320312 C 11.652344 9.914062 12.296875 9.570312 12.976562 9.289062 C 13.652344 9.007812 14.351562 8.796875 15.074219 8.652344 C 15.792969 8.507812 16.519531 8.4375 17.253906 8.4375 C 17.988281 8.4375 18.714844 8.507812 19.4375 8.652344 C 20.15625 8.796875 20.855469 9.007812 21.535156 9.289062 C 22.210938 9.570312 22.855469 9.914062 23.46875 10.320312 C 24.078125 10.730469 24.640625 11.191406 25.160156 11.710938 C 25.679688 12.230469 26.144531 12.796875 26.550781 13.40625 C 26.960938 14.015625 27.304688 14.660156 27.585938 15.339844 C 27.867188 16.019531 28.078125 16.71875 28.222656 17.4375 C 28.363281 18.15625 28.4375 18.882812 28.4375 19.617188 Z M 28.4375 19.617188 " fill-opacity="1" fill-rule="nonzero"/><path fill="#ffffff" d="M 15.617188 17.109375 L 15.050781 15.421875 C 14.984375 15.226562 14.882812 15.054688 14.746094 14.902344 C 14.605469 14.75 14.441406 14.632812 14.253906 14.554688 C 14.0625 14.472656 13.867188 14.433594 13.660156 14.4375 C 13.453125 14.4375 13.257812 14.484375 13.074219 14.570312 L 12.160156 14.996094 C 11.855469 15.136719 11.628906 15.359375 11.476562 15.664062 C 11.328125 15.964844 11.289062 16.28125 11.359375 16.613281 C 11.929688 19.25 14.027344 25.566406 21.109375 26.355469 C 21.394531 26.386719 21.667969 26.335938 21.925781 26.203125 C 22.183594 26.074219 22.382812 25.882812 22.523438 25.628906 L 22.996094 24.800781 C 23.089844 24.632812 23.148438 24.453125 23.171875 24.265625 C 23.195312 24.074219 23.179688 23.886719 23.128906 23.703125 C 23.078125 23.519531 22.992188 23.351562 22.875 23.199219 C 22.757812 23.050781 22.617188 22.925781 22.449219 22.832031 L 22.4375 22.828125 L 21.175781 22.125 C 20.898438 21.96875 20.597656 21.914062 20.28125 21.957031 C 19.960938 22 19.6875 22.136719 19.460938 22.363281 C 19.234375 22.585938 18.964844 22.722656 18.648438 22.765625 C 18.332031 22.8125 18.035156 22.757812 17.753906 22.605469 C 16.984375 22.183594 15.933594 21.464844 15.199219 20.402344 C 15.027344 20.160156 14.941406 19.886719 14.9375 19.589844 C 14.933594 19.292969 15.015625 19.023438 15.179688 18.773438 L 15.449219 18.367188 C 15.710938 17.972656 15.765625 17.554688 15.617188 17.109375 Z M 15.617188 17.109375 " fill-opacity="1" fill-rule="nonzero"/></svg>